<svg xmlns="http://www.w3.org/2000/svg" xmlns:xlink="http://www.w3.org/1999/xlink" width="1000" zoomAndPan="magnify" viewBox="0 0 750 187.499995" height="250" preserveAspectRatio="xMidYMid meet" version="1.0"><path fill="#7d89ff" d="M 168.820312 108.789062 C 168.828125 92.59375 168.320312 76.800781 171.785156 61.367188 C 176.75 39.273438 197.929688 20.664062 220.496094 17.507812 C 239.953125 14.785156 257.972656 17.582031 273.667969 30.226562 C 286.992188 40.957031 294.5625 54.984375 295.941406 71.933594 C 298.375 101.78125 296.480469 131.710938 296.925781 161.601562 C 297 166.757812 294.667969 168.8125 289.488281 168.964844 C 285.3125 169.089844 281.15625 169.140625 276.980469 169.605469 C 271.28125 170.238281 267.859375 167.894531 265.976562 162.5625 C 264.640625 158.78125 263.476562 154.9375 262.421875 151.066406 C 261.652344 148.246094 260.351562 146.699219 257.089844 146.742188 C 245.511719 146.902344 233.925781 146.800781 222.347656 146.84375 C 218.007812 146.859375 214.433594 148.351562 211.148438 151.460938 C 202.984375 159.191406 194.492188 166.578125 186.109375 174.078125 C 184.050781 175.917969 181.730469 177.242188 178.996094 177.96875 C 173 179.566406 170.316406 177.640625 169.730469 171.4375 C 167.777344 150.738281 169.335938 129.992188 168.820312 108.789062 M 214.828125 58.375 C 207.722656 68.226562 207.378906 78.105469 213.839844 86.851562 C 220.121094 95.351562 230.820312 98.542969 240.835938 94.902344 C 256.683594 89.144531 261.042969 68.703125 248.90625 57.070312 C 239.03125 47.605469 226.214844 47.90625 214.828125 58.375 M 228.953125 105.328125 C 217.90625 106.40625 209.308594 112.902344 200.222656 118.703125 C 221.589844 118.703125 242.957031 118.703125 264.328125 118.703125 C 253.726562 111.59375 243.390625 104.152344 228.953125 105.328125 Z M 228.953125 105.328125 " fill-opacity="1" fill-rule="nonzero"/><path fill="#ffffff" d="M 442.851562 148.394531 C 442.847656 153.542969 442.851562 158.210938 442.832031 162.878906 C 442.8125 166.820312 440.703125 168.871094 436.878906 168.9375 C 430.441406 169.046875 424 169.042969 417.566406 168.925781 C 413.519531 168.855469 410.699219 166.5 408.484375 163.335938 C 401.007812 152.667969 393.554688 141.988281 386.074219 131.324219 C 374.167969 114.363281 362.25 97.40625 350.316406 80.460938 C 349.691406 79.570312 348.886719 78.808594 347.222656 76.914062 C 347.222656 79.960938 347.222656 81.800781 347.222656 83.640625 C 347.21875 109.394531 347.226562 135.144531 347.210938 160.898438 C 347.210938 167.707031 345.941406 168.957031 338.984375 169 C 333.996094 169.035156 329.003906 169.113281 324.019531 168.941406 C 319.328125 168.785156 315.996094 166.765625 315.476562 161.605469 C 315.269531 159.535156 314.855469 157.46875 314.851562 155.398438 C 314.785156 112.90625 314.753906 70.417969 314.742188 27.925781 C 314.738281 20.054688 316.800781 18.019531 324.789062 17.882812 C 328.003906 17.828125 331.242188 18.058594 334.441406 17.796875 C 341.316406 17.234375 345.910156 19.566406 350.011719 25.671875 C 362.570312 44.351562 375.953125 62.480469 389.015625 80.820312 C 395.078125 89.339844 401.121094 97.875 407.222656 106.367188 C 408.222656 107.753906 408.980469 109.414062 410.753906 110.285156 C 411.738281 108.59375 411.234375 106.804688 411.238281 105.121094 C 411.277344 80.976562 411.265625 56.835938 411.265625 32.691406 C 411.265625 31.242188 411.214844 29.792969 411.292969 28.347656 C 411.738281 20.089844 413.269531 18.628906 421.421875 18.617188 C 426.570312 18.613281 431.726562 18.742188 436.871094 18.585938 C 441.355469 18.449219 443.742188 20.804688 443.683594 24.886719 C 443.40625 44.648438 444.691406 64.421875 443.019531 84.183594 C 442.394531 91.535156 442.859375 98.980469 442.855469 106.386719 C 442.84375 120.226562 442.851562 134.070312 442.851562 148.394531 Z M 442.851562 148.394531 " fill-opacity="1" fill-rule="nonzero"/><path fill="#ffffff" d="M 492.164062 25.984375 C 521.992188 7.953125 563.515625 12.03125 588.277344 35.730469 C 591.671875 38.976562 594.695312 42.394531 595.65625 47.277344 C 596.5 51.546875 594.816406 54.542969 591.363281 56.546875 C 587.335938 58.882812 583.117188 60.886719 578.949219 62.96875 C 572.832031 66.027344 568.59375 65.097656 563.992188 59.890625 C 555.574219 50.363281 545.21875 44.964844 532.261719 45.394531 C 517.148438 45.894531 504.867188 52.097656 498.007812 65.707031 C 488.015625 85.53125 488.636719 105.515625 501.644531 123.949219 C 514.050781 141.523438 540.515625 145.316406 556.40625 132.503906 C 561.761719 128.191406 564.65625 122.292969 566.566406 115.898438 C 567.488281 112.816406 566.296875 111.023438 562.6875 111.097656 C 556.253906 111.226562 549.816406 111.179688 543.378906 111.085938 C 537.898438 111.007812 535.363281 108.703125 534.996094 103.257812 C 534.761719 99.734375 534.785156 96.167969 535.042969 92.644531 C 535.410156 87.660156 538.550781 84.234375 543.40625 84.421875 C 559.792969 85.054688 576.140625 82.867188 592.558594 84.089844 C 597.398438 84.453125 599.429688 86.707031 599.988281 90.550781 C 603.367188 113.734375 598.03125 142.023438 574.238281 158.546875 C 555.898438 171.285156 535.421875 173.769531 513.890625 168.5 C 486.460938 161.785156 463.777344 137.011719 459.472656 108.988281 C 455.570312 83.589844 459.511719 60.066406 476.148438 39.5625 C 480.578125 34.105469 486.050781 29.960938 492.164062 25.984375 Z M 492.164062 25.984375 " fill-opacity="1" fill-rule="nonzero"/><path fill="#ffffff" d="M 53.347656 63.53125 C 40.253906 85.296875 45.570312 112.933594 60.296875 128.179688 C 73.878906 142.234375 96.476562 142.976562 109.578125 129.632812 C 113.195312 125.949219 115.011719 121.359375 116.320312 116.5 C 117.136719 113.476562 116.242188 111.921875 112.832031 111.984375 C 106.71875 112.09375 100.601562 112.0625 94.484375 111.96875 C 87.195312 111.851562 83.933594 108.53125 83.804688 101.265625 C 83.769531 99.335938 83.789062 97.402344 83.796875 95.472656 C 83.851562 86.132812 86.429688 83.449219 95.898438 83.390625 C 110.0625 83.296875 124.230469 83.3125 138.394531 83.398438 C 147.777344 83.457031 150.238281 85.867188 150.113281 95.132812 C 149.980469 104.902344 150.910156 114.695312 148.3125 124.394531 C 141.480469 149.898438 124.691406 164.914062 99.3125 169.8125 C 62.121094 176.992188 24.691406 151.929688 15.367188 114.078125 C 9.304688 89.464844 11.257812 65.511719 26.570312 44.667969 C 44.996094 19.597656 70.792969 11.175781 101.058594 16.199219 C 115.652344 18.617188 128.457031 25.199219 139.40625 35.226562 C 141.429688 37.082031 143.222656 39.121094 144.390625 41.671875 C 147.511719 48.460938 145.992188 52.945312 139.34375 56.3125 C 136.621094 57.695312 133.882812 59.039062 131.167969 60.429688 C 123.746094 64.230469 119.964844 63.707031 114.023438 57.515625 C 107.980469 51.21875 100.554688 47.675781 92.117188 46.277344 C 75.636719 43.542969 62.957031 49.753906 53.347656 63.53125 Z M 53.347656 63.53125 " fill-opacity="1" fill-rule="nonzero"/><path fill="#ffffff" d="M 672.421875 138.808594 C 658.414062 138.804688 644.894531 138.820312 631.371094 138.785156 C 624.378906 138.765625 622.542969 137.058594 621.808594 130.226562 C 621.605469 128.316406 621.152344 126.433594 620.960938 124.523438 C 620.183594 116.808594 622.554688 110.441406 627.304688 104.042969 C 645.890625 79 664.328125 53.820312 681.8125 28.011719 C 687.011719 20.335938 693.332031 18.378906 701.160156 18.015625 C 707.5625 17.71875 714.007812 17.449219 720.421875 18.546875 C 723.652344 19.097656 725.445312 20.980469 725.71875 23.890625 C 726.089844 27.875 726.882812 31.792969 726.859375 35.851562 C 726.726562 59.035156 726.910156 82.214844 726.71875 105.394531 C 726.679688 109.90625 727.769531 112.085938 732.585938 111.421875 C 734.324219 111.179688 736.121094 111.378906 737.890625 111.402344 C 741.609375 111.449219 743.902344 113.449219 745 116.84375 C 746.257812 120.726562 746.511719 124.765625 745.988281 128.773438 C 744.925781 136.902344 742.683594 138.71875 734.269531 138.753906 C 726.855469 138.785156 726.855469 138.785156 726.851562 146.128906 C 726.847656 151.117188 726.925781 156.109375 726.816406 161.097656 C 726.695312 166.714844 724.425781 168.898438 718.761719 168.953125 C 713.449219 169.003906 708.136719 168.949219 702.824219 168.945312 C 698.730469 168.941406 696.867188 166.789062 696.195312 162.828125 C 695.132812 156.589844 695.292969 150.328125 695.484375 144.082031 C 695.605469 140.167969 694.390625 138.515625 690.285156 138.707031 C 684.503906 138.980469 678.699219 138.796875 672.421875 138.808594 M 669.96875 95.15625 C 666.792969 100.230469 663.613281 105.304688 659.832031 111.335938 C 671.648438 111.335938 682.203125 111.375 692.757812 111.308594 C 695.59375 111.292969 695.359375 109.125 695.347656 107.132812 C 695.292969 98.136719 695.28125 89.144531 695.269531 80.152344 C 695.257812 72.851562 695.265625 65.550781 695.265625 58.25 C 694.96875 58.195312 694.675781 58.140625 694.378906 58.085938 C 686.371094 70.246094 678.359375 82.410156 669.96875 95.15625 Z M 669.96875 95.15625 " fill-opacity="1" fill-rule="nonzero"/></svg>